<?xml version="1.0" encoding="utf-8"?>
<!-- Generator: Adobe Illustrator 16.0.0, SVG Export Plug-In . SVG Version: 6.00 Build 0)  -->
<!DOCTYPE svg PUBLIC "-//W3C//DTD SVG 1.1//EN" "http://www.w3.org/Graphics/SVG/1.1/DTD/svg11.dtd">
<svg version="1.1" id="Layer_1" xmlns="http://www.w3.org/2000/svg" xmlns:xlink="http://www.w3.org/1999/xlink" x="0px" y="0px"
	 width="80px" height="180.271px" viewBox="0 0 80 180.271" enable-background="new 0 0 80 180.271" xml:space="preserve">
<path fill="#CF9C0A" d="M73.964,0H6.036C2.716,0,0,2.7,0,6v128c0,3.3,2.716,6,6.036,6h67.928c3.32,0,6.036-2.7,6.036-6V6
	C80,2.7,77.284,0,73.964,0z M31.787,9.172h16.428v3.212H31.787V9.172z M44.696,134.136h-9.392v-9.336h9.392V134.136z M71.472,117.94
	H8.529V19.323h62.943V117.94z"/>
<polyline fill="none" stroke="#CF9C0A" stroke-width="4" points="50.421,61.759 50.421,69.037 40,78.741 29.579,69.037 
	29.579,61.759 "/>
</svg>
