<?xml version="1.0" encoding="utf-8"?>
<!-- Generator: Adobe Illustrator 16.0.0, SVG Export Plug-In . SVG Version: 6.00 Build 0)  -->
<!DOCTYPE svg PUBLIC "-//W3C//DTD SVG 1.1//EN" "http://www.w3.org/Graphics/SVG/1.1/DTD/svg11.dtd">
<svg version="1.1" id="Layer_1" xmlns="http://www.w3.org/2000/svg" xmlns:xlink="http://www.w3.org/1999/xlink" x="0px" y="0px"
	 width="144px" height="120px" viewBox="0 0 39.5 29.068" enable-background="new 0 0 39.5 29.068" xml:space="preserve">
<path fill="#ECBE38" d="M26.562,5.715c0,0-0.302-0.338-0.355-1.173c0,0,0.468-0.518,1.045-0.588c-0.001,0,0.369,0.476,0.396,1.104
	C27.647,5.059,27.275,5.552,26.562,5.715 M30.846,6.556c-0.176-0.213-0.503-0.564-1.017-0.484c-0.047-0.191-0.139-0.396-0.645-0.25
	c-0.106-0.105-0.193-0.229-0.733-0.08c-0.161-0.235-0.403-0.752-0.786-1.939c-0.179-0.28-0.305-0.207-0.574-0.157
	c-0.221,0.095-0.93,0.38-1.155,0.655c-0.175,0.011-0.451-0.003-0.983,0.24c-0.129-0.219-0.31-0.482-0.44-0.555
	c-0.119-0.074-0.235-0.131-0.572-0.093c-0.042-0.159-0.149-0.575-0.377-0.59c-0.174,0.043-0.238,0.048-0.356,0.217
	c-0.177-0.198-0.707-0.669-0.87-0.187c-0.018,0.225,0.019,0.287,0.227,0.758c0.056,0.145,0.502,0.499,0.566,1.498
	c-0.036,0.164-0.056,0.406,0.129,0.441c0,0,2.492,0.846,4.764,2.026c0.181,0.036,0.266,0.097,0.418-0.058
	c0.137-0.122,1.237-1.029,2.253-1.045C30.919,6.923,31.068,7.028,30.846,6.556"/>
<path fill="#ECBE38" d="M26.477,4.649c0.035,0.527,0.221,0.736,0.221,0.736c0.449-0.102,0.681-0.41,0.681-0.41
	c-0.014-0.396-0.247-0.693-0.247-0.693C26.771,4.326,26.477,4.649,26.477,4.649"/>
<path fill="#ECBE38" d="M22.566,8.541c0,0,0.176-0.549-0.396-0.835c0-0.001,0.663-0.5,1.439-0.357c0,0-0.77,0.426,0.113,0.936
	C23.724,8.284,22.75,8.349,22.566,8.541 M28.494,8.778c0,0-1.869-1.264-5.749-2.51l-0.092,0.006l-0.868,0.328
	c0,0-0.94,0.231-0.884,0.748c0,0,0.064,0.323-0.315,0.479c0,0-1.371,0.734-1.274,1.207l0.026,0.467c0,0,0.689-0.572,1.779-0.861
	c0,0-1.345,1.019-1.499,1.42c-0.05,0.095-0.062,0.854,0.396,1.179c0.27,0.163,0.212,0.151,0.428,0.099
	c0.098,0.116,0.445,0.869,0.819,0.721c0,0-0.324-0.492-0.094-0.908c0.084-0.051,0.169-0.051,0.229-0.242
	c0.106-0.309,0.263-0.479,0.613-0.568c0,0,0.969-0.425,1.098,1.37c0,0,0.19,0.894-0.359,1.146c0,0-0.534,0.285-1.088,0.336
	c0,0-0.312-0.457,0.152-1.013c0,0-0.058-0.188-0.516,0.121c0,0-0.447,0.438-0.481,0.882c0,0-0.396-0.436-0.208-0.882
	c0,0-0.244-0.112-0.428,0.396c0,0-0.154,0.593,0.177,1.021c0,0,0.14,0.143-0.035,0.756c0,0-1.93-1.485-4.424-0.092
	c0,0-1.134-1.152-1.432-1.711c0,0-0.743-1.14-0.915-1.47c0,0-0.562-0.996-0.488-1.521c0,0,0.547-1.233,0.216-2.002
	c0,0-0.084-0.353-0.073-0.68c0.038-0.109-0.053-0.168-0.053-0.168s-0.297-0.238-0.417-0.123c-0.035,0.132-0.071,0.263-0.216,0.359
	c-0.011,0.151,0.312,1.4-0.697,1.123c0,0-0.161-0.118-0.337,0.176c-0.143,0.094-0.248,0.081-0.345,0.109
	c0,0-0.225,0.039-0.162,0.412c-0.035,0.131-0.199,0.17-0.3,0.284c-0.08,0.09-0.267,0.213-0.271,0.449
	c-0.005,0.237-0.287,0.536-0.607,0.58c-0.145,0.094-0.53,0.422-0.525,0.53c0.072,0.125,0.367,0.343,0.657,0.475
	c0,0,0.456,0.055,0.794,0.938c0,0,0.368,0.967,0.749,2.17c0.11,0.336,0.396,1.393,0.479,1.689c0.059,0.235,0.341,0.884,0.481,2.061
	c0.013,0.168-0.003,0.258-0.016,0.39c0.088,0.035,0.212,0.038,1.023-1.009c0.236-0.359,1.264-1.98,2.905-2.524
	c-0.069-0.104-0.113-0.096-0.231-0.239c0.211-0.058,0.458-0.067,0.793,0.104c0,0,0.89,0.269,1.408,0.697
	c0,0,1.413,1.238,3.117,0.785c-0.285,0.637-1.114,1.67-0.887,2.961c0.02,0.088,0.24,1.506,1.503,1.652c0,0-0.224-0.674,0.541-1.502
	c0.36-0.415,1.425-1.374,1.705-2.566c0,0,0.11-0.244,0.271-0.379l0.019-0.007l0.545,0.439c0,0-0.242,0.457-0.19,1.468
	c0.016,0.331,0.215,1.441,1.342,1.54c0.33,0.012,0.937-0.171,1.147-0.918c-0.191,0.078-0.699,0.368-0.895-0.78
	c-0.03-0.245-0.021-0.656,0.428-1.363c0.195-0.264,0.354-0.822,0.304-1.248c-0.138-0.1-0.853-0.483-1.139-1.238
	c-0.184,0.158-2.237,1.678-3.621,0.951c0,0,1.3-0.885,1.543-3.68c0.075-0.459-0.061-2.516,1.66-2.848
	c-0.284,0.256-1.344,0.841-1.258,3.059c0,0.889-0.273,2.297-1.218,3.266c0,0,1.681-0.098,3.11-1.533c0,0-0.064,1.193,2.12,2.199
	c0,0-0.777-1.303,0.006-2.801C28.471,12.938,29.613,11.032,28.494,8.778"/>
<path fill="#ECBE38" d="M16.601,15.219c0,0-1.518,0.312-3.105,2.79c0,0-0.878,1.585-2.712,0.842c0,0-0.163,0.503,1.168,1.223
	c0.082,0.053,0.756,0.558,2.983-0.172c0,0-0.18,1.077-1.303,1.754c0.218,0.219,2.326,0.656,3.89-1.694c0,0,0.25,1.485,1.717,1.96
	c0,0-1.081-1.533,0.76-2.979c0,0,0.169-1.462,0.812-2.251c0,0-1.114,0.273-2.497-0.762C18.312,15.93,17.115,15.061,16.601,15.219"/>
<path fill="#ECBE38" d="M12.148,6.8c0,0,0.683-0.169,0.419-1.418c-0.068-0.071-0.18-0.107-0.212-0.293
	c-0.065-0.055-0.19-0.231-0.367-0.293c-0.107-0.022-0.29-0.131-0.71-0.139c-0.174-0.048-0.333-0.08-0.474,0.086
	c-0.081,0.133-0.224,0.455-0.287,0.615c-0.129-0.05-0.85-0.468-1.274,0.172C9.137,5.729,8.996,5.895,8.983,6.64
	C8.945,6.737,8.582,6.847,8.396,6.862C8.322,6.915,7.859,6.941,8.036,8.228c-0.104,0.088-0.089,0.087-0.18,0.096
	C7.803,8.405,7.592,8.501,7.69,9.251c0.084,0.289,0.323,1.009,1.203,0.963c0.229-0.037,0.469-0.114,0.625-0.268
	c0.086-0.07,0.145-0.119,0.145-0.119s0.139-0.013,0.256-0.119c0.1-0.084,0.298-0.303,0.297-0.49
	c-0.134,0.059-0.531,0.413-0.877-0.023C9.2,9.223,9.23,9.22,9.2,9.223C9.17,9.228,8.436,9.622,8.347,8.604
	c0.244,0.135,0.626,0.411,1.849,0.211c0.181-0.074,0.228-0.081,0.368-0.248c0.071-0.068,0.108-0.18,0.108-0.18
	s-0.357,0.156-0.588-0.15c-0.087-0.119-0.117-0.1-0.188-0.388C9.874,7.79,9.7,7.743,9.301,7.639C9.158,7.59,8.911,7.267,9.09,6.973
	c0.109,0.209,0.369,0.421,0.916,0.466c0.121,0.16,0.372,0.557,0.862,0.483c0.307-0.056,0.406-0.099,0.605-0.132
	c0.059-0.021-0.303-0.154-0.436-0.266c-0.089-0.117-0.205-0.201-0.204-0.543c-0.039-0.091-0.15-0.126-0.31-0.158
	c-0.09-0.162-0.483-0.881-0.053-1.273c-0.025,0.251-0.044,0.92,0.75,1.16c0.055,0.244,0.17,0.854,1.134,0.863
	c0.02-0.143-0.047-0.168-0.136-0.313C12.208,7.122,12.13,6.941,12.148,6.8"/>
<path fill="#ECBE38" d="M12.77,5.022l0.618,1.202c0,0,0.029,0.018,0.02,0.097c0,0-0.052,0.113-0.241-0.12
	c-0.13-0.065-0.351-0.11-0.316-0.422c-0.019-0.201-0.024-0.276-0.132-0.438C12.689,5.204,12.636,5.097,12.77,5.022"/>
<path fill="#ECBE38" d="M12.734,4.449c0,0-0.487,0.294-0.788-0.162c-0.096-0.178-0.266-0.364,0.21-0.778
	c-0.163-0.25-0.45-0.537,0.04-0.869c0.427-0.181,0.539-0.145,0.885,0.431c0,0,0.464-0.365,0.686,0.206
	c0.057,0.289,0.132,0.453-0.304,0.801l1.059,1.989c0,0,0.508-0.402,0.815,0.1c0,0,0.294,0.347-0.148,0.788
	c0.128,0.223,0.312,0.549-0.114,0.834c-0.285,0.102-0.609,0.315-0.944-0.32C13.934,7.515,13.683,7.645,13.44,7.2
	c-0.06-0.148-0.083-0.432,0.341-0.763C13.537,5.979,12.734,4.449,12.734,4.449"/>
<path fill="#ECBE38" d="M14.637,5.549c4.16-2.594,7.889-3.456,7.889-3.456c6.395-1.361,9.573,2.211,9.801,2.518
	c1.837-0.996,4.427-0.104,4.427-0.104C32.309-0.424,25.99-0.036,24.77,0.038C19.381,0.53,13.937,4.259,13.937,4.259L14.637,5.549z"
	/>
<path fill="#ECBE38" d="M6.992,23.1c-0.229-0.203-0.612-1.043-1.631-0.757c0,0,0.706-0.812,1.337-0.168
	c0.258,0.4,0.484,0.742,0.557,0.908C7.255,23.083,7.205,23.257,6.992,23.1 M6.766,23.686c-0.122,0.04-0.912,0.082-1.519,0.758
	c-0.033-0.046-0.158-0.131-0.158-0.131s0.387-0.491,0.717-0.652c0.314-0.149,0.4-0.276,1.093-0.135
	C6.889,23.619,6.884,23.647,6.766,23.686 M4.753,14.376c-0.186-0.233-0.472-0.871-0.539-0.943c0,0,0.754,0.404,1.115,0.723
	c0.282,0.273,0.562,0.671,0.656,1.176C5.985,15.331,5.185,14.781,4.753,14.376 M5.854,6.854c0.235-0.461,0.093-0.345,0.431-1.525
	c0.35,0.927,0.235,2.021,0.11,2.232C6.266,7.941,5.716,8.61,5.716,8.61L5.669,8.688C5.679,8.392,5.783,7.261,5.854,6.854
	 M4.472,17.898c0.01-0.294-0.013-0.851-0.013-0.851c0.172,0.234,0.282,0.523,0.404,0.933c0.211,1.071,0.402,1.183,0.774,1.606
	C4.481,19.447,4.49,18.206,4.472,17.898 M3.935,10.359C3.629,9.958,3.286,9.282,2.956,8.996c0,0,0.736,0.153,1.486,1.171
	c0.137,0.194,0.534,0.713,0.711,1.056C4.716,10.941,4.474,11.02,3.935,10.359 M3.55,6.583C2.921,5.815,2.999,5.309,2.887,5.081
	c0,0,0.853,0.608,1.299,1.477c0.242,0.371,0.582,0.882,0.689,1.078C4.574,7.345,4.191,7.146,3.55,6.583 M7.764,12.55
	c0.062-0.004,0.29-0.871,0.431-0.125c-0.024,0.34-0.044,0.676-0.306,1.143c-0.092,0.27-0.666,1.048-0.69,1.143
	C7.198,14.71,7.218,13.645,7.764,12.55 M7.45,17.893c0.143-0.429,0.521-1.043,0.713-1.163c-0.16,0.365-0.132,0.847-0.279,1.214
	c-0.169,0.707-0.887,1.049-0.887,1.049C7.109,18.829,7.348,18.194,7.45,17.893 M17.438,20.789c-0.06,0.009-0.108,0.021-0.135,0.069
	c-0.041,0.097-0.549,1.107-2.761,1.411c-0.729-0.015-0.792-0.03-1.603-0.538c0.298-0.191,0.298-0.311,0.71-0.661
	c0.216-0.2,0.59-0.433,0.625-0.606c0,0-0.616,0.323-1.934,0.153c0,0-0.657,0.776-1.726,1.265c-0.075,0.039-1.251,0.314-1.933,0.733
	c-0.34,0.056-0.598,0.132-0.887-0.701c-0.092-0.441-0.239-1.239-1.19-1.36c0.158-0.385,0.224-0.572,1.194-1.15
	c0.427-0.354,1.106-0.833,1.427-2.081c0.056-0.56,0.004-1.778,0.238-2.446c0.114-0.365,0.169-0.494,0.174-0.649
	c-0.048-0.011-0.128-0.021-0.152,0.042c-0.025,0.064-0.179,0.572-0.667,0.93c-0.158,0.164-0.955,0.776-1.329,1.204
	c-0.168,0.261-0.334,0.349-0.688,1.054c0.158-0.631,0.238-1.519,1.098-2.354c0.359-0.409,1.115-1.458,0.8-3.029
	c-0.113-0.56-0.341-0.794-0.354-0.936c0.014-0.055-0.059-0.098-0.059-0.098s-0.283,0.135-0.414,0.244
	c-0.13,0.147-0.677,0.568-0.896,1.484c0,0-0.116,0.454-0.131,0.685c-0.001,0-0.177-1.336-0.344-1.964
	c-0.157-0.545-0.583-1.604-0.06-2.455C6.694,8.6,7.798,7.179,6.944,4.47C6.618,3.88,6.627,3.464,5.656,2.886
	C5.552,2.923,5.555,2.97,5.678,3.227c0.11,0.458,0.201,1.133-0.142,2.024C5.501,5.407,5.028,6.693,5.2,7.644
	c-0.217-0.448-0.238-0.34-0.344-0.721C4.768,6.511,4.367,4.244,1.223,3.554C1.042,3.63,1.017,3.661,1.142,3.809
	c0.135,0.1,0.568,0.506,1.016,2.133c0.237,0.526,0.27,0.786,1.787,1.927c0.393,0.299,0.825,0.52,1.416,2.631
	c-0.001,0-0.207-0.076-0.729-0.926C4.405,9.216,3.906,8.148,2.117,8.128C1.654,8.145,1.242,8.265,1.248,8.341
	c0,0-0.131,0.057,0.21,0.234C1.714,8.79,2.252,9.222,2.513,9.854c0.36,0.551,0.685,0.992,1.312,1.32
	c0.655,0.299,1.577,0.174,2.053,1.724c0.042,0.185,0.187,0.918,0.15,1.339c0,0-0.515-0.988-1.154-1.286
	c-0.256-0.124-1.177-0.465-1.565-0.934c-0.138-0.194-0.28-0.479-0.355-0.224c0.013,0.23-0.059,2.838,2.215,3.693
	c0,0,1.058,0.505,0.89,1.675c0,0,0.001,1.923-0.21,2.263c-0.117-0.625-0.409-3.149-1.655-3.918C3.798,15.206,3.283,14.9,2.37,15.148
	c0,0,0.655,0.28,0.851,1.368c0.136,0.641,0.251,2.369,1.714,3.374c0.343,0.286,0.633,0.437,0.708,0.852c0,0-0.325,0.271-0.427,0.587
	c-0.201,0.215-0.511,0.465-0.258,1.244c-0.252,0.399-0.838,1.152,0.096,2.096c-0.193,0.688-0.198,0.711-0.136,1.004
	c0.099,0.375,0.645,1.178,1.136,1.098c-0.215-0.235-0.444-0.784,0.239-0.938c0.23-0.021,0.55,0.081,1.118-0.406
	c-0.033,0.551-0.193,0.556,0.247,1.162c-0.143,0.396,0.039,0.522-0.598,0.728c0.496,0.216,0.904,0.384,1.527-0.278
	c0.264-0.019,0.508-0.065,0.93-0.712c0.322-0.46,1.395-1.383,5.149-0.856c0.604-0.226,2.13-1.061,3.109-1.979
	c0.072-0.516,0.243-0.975,0.596-1.478C17.802,21.619,17.582,21.529,17.438,20.789"/>
<path fill="#ECBE38" d="M8.236,30.129c0,0-0.13-0.579,0.542-1.414c0.228-0.295,0.373-0.441,0.373-0.441s0.041,0.536-0.113,0.778
	C8.918,29.356,8.297,30.08,8.236,30.129 M5.299,28.81c0,0,0.556,0.853,1.658,1.623C6.468,30.308,5.299,30.011,5.299,28.81
	 M10.79,34.007c-0.803-0.646-1.406-1.336-1.645-1.644c-0.792-0.974-0.162-1.74,0.022-2.001c0.717-0.637,0.893-0.99,1.055-1.372
	c0.207-0.836,0.099-1.54,0.053-1.754c-0.06-0.198-0.068-0.353-0.097-0.769c0.001-0.219-0.033-0.229-0.171-0.221
	c-0.261,0.514-0.739,0.979-1.151,1.35c-0.984,0.993-0.989,1.646-1.03,2.189c-0.066-0.322-0.459-2.02-0.459-2.02
	C6.625,27.57,6.515,27.3,6.515,27.3c0.019-0.17,0.296-0.22,0.296-0.22c0.506-0.05,0.44-0.324,0.44-0.324
	c0.01-0.107-0.129-0.331-0.129-0.331c-0.018-0.25-0.097-0.291-0.097-0.291c-0.429,0.105-0.649,0.045-0.649,0.045
	c-0.391,0.166-0.024,0.545-0.024,0.545c0.074,0.149,0.097,0.084,0.024,0.151c-0.037,0.128-0.048,0.206-0.136,0.276
	c-0.12,0.066-0.083,0.144-0.062,0.232c-0.014,0.234,0.31,1.377,0.435,1.896c-0.105-0.239-0.424-0.806-0.695-1.181
	c-1.182-1.641-2.438-1.43-2.701-1.43c-0.354,0.055-0.268,0.155-0.206,0.168c0.628,0.127,0.942,1.133,1.072,1.415
	c0.172,0.472,0.446,0.919,0.851,1.619c0.756,0.879,1.988,0.964,2.237,0.997c0.12,0.411,1.088,2.577,1.355,3.118
	c0.812,0.809,2.258,0.172,2.258,0.172C10.875,34.122,10.79,34.007,10.79,34.007"/>
<line fill="#ECBE38" x1="24.696" y1="17.062" x2="24.696" y2="17.062"/>
<path fill="#ECBE38" d="M37.395,12.721c0.296-1.313,0.214-2.33,0.214-2.33c-0.141-1.079-1.072-1.251-1.072-1.251
	c-0.871-1.466-1.777-1.539-2.367-1.57c-3.765,0.232-3.719,4.291-3.789,5.517c0.118,2.757,0.688,4.547,0.962,5.586
	c0.363,1.434,1.377,3.809,1.665,4.629c0.266,1.176-0.514,1.577-0.514,1.577c-1.12,0.797-2.739-1.362-2.739-1.362
	c-0.458-0.585-0.944-0.967-1.539-1.217c-1.735-0.638-2.088-1.167-2.553-1.572c-1.831-1.571-0.993-3.635-0.993-3.635
	c0.007-0.028,0.02-0.032,0.027-0.031c-0.01-0.001-0.023-0.012-0.06-0.042c-0.34,0.93-0.674,1.393-1.295,2.141
	c-1.202,1.303-0.914,1.832-0.738,2.205c-1.931,0.14-2.398-1.693-2.516-1.937c-1.558,1.259-0.229,2.741-0.031,2.929
	c-0.776,0.202-1.211-0.054-1.347-0.078c-0.227,0.148-0.487,1.383-0.487,1.383l-0.122,0.135c0,0-0.6,0.539-1.155,0.934
	c1.429,2.586,3.664,1.362,4.492,0.971c1.774-0.771,2.749,0.035,3.287,0.584c1.101,1.193,0.821,2.354,0.863,2.953
	c-0.066,0.629,0.205,2.207,0.479,3.041c0.242,1.645-0.425,1.418-0.682,1.588c1.187,0.475,1.674-0.496,1.876-0.746
	c0.267,0.471,0.038,1.32,0.038,1.32c0.672-0.227,0.959-0.92,1.064-1.127c0.269,0.269,0.896,0.611,1.264,0.84
	c0.737,0.52,0.748,0.889,0.912,1.629c0.271,2.295-1.794,2.752-2.107,2.857c-0.244,0.066-0.278-0.181-0.278-0.181
	c-0.129-0.429-0.049-0.611-0.34-0.835c-0.842-0.562-1.068-0.215-1.416,0.129c-1.293,0.236-1.346,1.181-1.331,1.43
	c0.935-0.849,1.712,0.271,1.712,0.271c-1.366,0.375-1.212,1.187-1.098,1.615c-0.473,0.955,0.407,1.582,0.601,1.719
	c-0.031-0.249,0.112-0.611,0.232-0.803c0.134-0.244,0.239-0.166,0.341-0.156c0.104,0.076,0.385,0.025,0.385,0.025
	c-0.353,1.228,0.556,1.483,1.065,1.606c1.082,0.79,1.753,0.164,1.793,0.011c-1.202,0.064-0.974-0.79-0.974-0.79
	c0.604-0.51,0.729-1.121,0.97-1.54c0.746,0.15,0.689,0.055,1.061-0.172c0.234,0.254,0.387,0.294,0.624,0.312
	c0.157,0.34,0.031,0.482-0.183,0.765c1.332-0.104,1.257-1.222,1.25-1.319c-0.006-0.103-0.023-0.103,0.049-0.277
	c0.339-0.707,0.283-0.807,0.143-1.147c0.754-0.517,0.761-0.905,0.894-1.131c1.196,0.325,1.535-0.404,1.535-0.404
	c-0.988-0.237-0.732-0.655-0.726-1.059c0.628-0.611,0.664-1.101,0.728-1.644c0.572,0.25,0.461,0.155,0.916,0.16
	c-0.46-0.591-0.497-0.922-0.56-1.355c0.312,0.162,0.519,0.233,0.725,0.269c-0.445-0.853-0.233-0.448-0.46-1.071
	c-0.601-1.877-1.184-1.725-1.513-1.845c-2.385-0.059-2.696-1.444-2.813-1.953c-0.459-1.596-0.622-1.888-0.989-2.266
	c-0.604-0.496-0.984-0.956-1.425-1.479c1.922,1.414,1.943,1.194,2.488,1.309c1.27-0.004,1.797-0.676,2.349-1.197
	c1.317-1.359,0.567-2.785,0.47-2.98c-0.007,0.384-0.059,0.389-0.285,0.754c-0.177-1.156-0.445-1.84-0.718-2.479
	c-0.225-0.419-1.069-2.675-1.223-3.255c-0.837-3.168-0.743-3.351-0.807-4.521c-0.084-3.781,1.394-4.262,2.085-4.43
	c1.063-0.281,1.555,0.432,1.747,0.787c-0.664,0.38-0.751,1.326-0.648,1.889c0.261,1.357-0.242,1.893-0.415,2.308
	c0.788-0.257,0.967-0.586,1.146-0.716c0.021,0.334,0.084,0.516,0.162,0.928c0.347,0.681,0.441,0.624,1.287,1.004
	c-0.595-0.915-0.498-1.96-0.498-1.96c0.526,1.356,0.932,1.376,1.27,1.472C37.241,13.45,37.379,12.892,37.395,12.721"/>
<path fill="#ECBE38" d="M24.896,27.295c-1.427-2.642-3.802-0.972-3.802-0.972c-0.123,0.102-0.521,0.389-0.836,0.691
	c-0.586,0.668-1.615,1.425-1.615,1.425c-1.695,1.339-1.871,2.003-1.981,2.347c-0.181,0.902-0.317,1.062-0.455,1.258
	c0.347,0.122,0.663-0.104,0.895-0.268c0.122,0.457,0.195,0.711,0.31,1.299c0.441,2.428-2.603,4.191-2.997,4.405
	c-0.482-0.007-0.525-0.358-0.53-0.431c-0.005-0.073-0.021-0.312-0.144-0.752c-0.562-0.895-1.427-0.499-1.837-0.23
	c-1.309,0.162-1.142,1.004-1.1,1.356c0.207-0.258,0.264-0.242,0.475-0.388c0.611-0.336,0.461,0.211,0.492,0.379
	c0.193,0.675,1.219,0.733,1.219,0.733l0.009,0.112c-0.146,0.029-0.317-0.016-0.563-0.091c-1.098-0.28-1.476,0.45-1.726,1.173
	c-0.785,0.781-0.127,1.7,0.031,1.859c0.233-1.002,0.286-0.748,0.604-1.01c0.922,0.479,1.324,0.379,1.69,0.279
	c-0.038,0.559,0.136,0.68,0.336,0.889c0.187,1.101,0.979,1.256,1.287,1.42c0.298,0.035,0.236-0.088,0.128-0.287
	c-0.333-0.274-0.211-0.637-0.154-0.9c0.157,0.102,0.263,0,0.558-0.039c0.597-0.243,0.75-1.277,0.75-1.277s0.136,0.082,0.292,0.186
	c-0.203,0.346-0.111,0.566-0.038,0.838c0.141,0.122,0.182,0.214,0.182,0.214l0.085-0.137c-0.006-0.075,0.027-0.169,0.162-0.347
	c0.328-0.392,0.704-0.326,1.055-0.369c0.863-0.704,0.488-1.313,0.32-1.619c0.195-0.124,0.484-0.235,0.943-0.322
	c1.813-0.419,1.961-0.967,2.095-1.199c1.06-0.033,1.942-0.706,2.015-0.767c0.069-0.062,0.106-0.082-0.089-0.22
	c-0.556-0.225-0.495-0.432-0.583-0.906c0.424-0.922-0.232-1.827-0.364-2.133c-0.155-0.379-0.315-0.502-0.484-1.104
	c-0.178-0.73,0.049-0.933,0.312-1.173c1.476-0.192,2.132-0.661,2.468-0.927c0.214-0.146,0.404-0.273,0.856-0.471
	C25.131,28.25,25.296,28.21,24.896,27.295"/>
</svg>
